<?xml version="1.0" encoding="iso-8859-1"?>
<!-- Generator: Adobe Illustrator 16.0.0, SVG Export Plug-In . SVG Version: 6.00 Build 0)  -->
<!DOCTYPE svg PUBLIC "-//W3C//DTD SVG 1.1//EN" "http://www.w3.org/Graphics/SVG/1.1/DTD/svg11.dtd">
<svg version="1.1" id="Capa_1" xmlns="http://www.w3.org/2000/svg" xmlns:xlink="http://www.w3.org/1999/xlink" x="0px" y="0px"
	 width="511.402px" height="511.403px" viewBox="0 0 511.402 511.403" style="enable-background:new 0 0 511.402 511.403;"
	 xml:space="preserve">
<g>
	<g>
		<path d="M255.703,509.681c140.993,0,255.7-114.707,255.7-255.702c0-99.062-56.662-185.082-139.245-227.523v53.112
			c56.236,37.675,93.345,101.785,93.345,174.411c0,115.686-94.113,209.803-209.799,209.803
			c-115.687,0-209.803-94.117-209.803-209.803c0-72.626,37.105-136.736,93.345-174.411V26.456C56.665,68.897,0,154.917,0,253.979
			C0,394.974,114.71,509.681,255.703,509.681z"/>
		<path d="M255.703,1.721c-13.62,0-24.657,11.041-24.657,24.658v19.296v212.951c0,13.617,11.037,24.658,24.657,24.658
			c13.62,0,24.658-11.041,24.658-24.658V45.675V26.379C280.36,12.762,269.322,1.721,255.703,1.721z"/>
	</g>
</g>
<g>
</g>
<g>
</g>
<g>
</g>
<g>
</g>
<g>
</g>
<g>
</g>
<g>
</g>
<g>
</g>
<g>
</g>
<g>
</g>
<g>
</g>
<g>
</g>
<g>
</g>
<g>
</g>
<g>
</g>
</svg>
